<svg width="164" height="52" viewBox="0 0 164 52" fill="none" xmlns="http://www.w3.org/2000/svg">
<rect width="50" height="50" rx="12" fill="#5C7CFA"/>
<g filter="url(#filter0_d_28_24)">
<path d="M24.8076 41.922C26.9963 41.922 28.7603 41.383 30.0996 40.305C31.4716 39.227 32.1576 37.6427 32.1576 35.552C32.1576 33.886 31.6513 32.4977 30.6386 31.387C29.626 30.2437 27.862 29.329 25.3466 28.643L21.9656 27.663C19.483 26.977 17.5883 25.8173 16.2816 24.184C14.975 22.5507 14.3216 20.558 14.3216 18.206C14.3216 16.638 14.681 15.168 15.3996 13.796C16.151 12.424 17.278 11.3133 18.7806 10.464C20.316 9.61466 22.2596 9.19 24.6116 9.19C27.225 9.19 29.332 9.68 30.9326 10.66C32.5333 11.6073 33.644 12.8487 34.2646 14.384C34.8853 15.9193 35.0323 17.569 34.7056 19.333L30.5896 20.215C31.0143 17.177 30.704 14.8413 29.6586 13.208C28.646 11.5747 26.882 10.758 24.3666 10.758C22.374 10.758 20.806 11.297 19.6626 12.375C18.5193 13.4203 17.9476 14.9557 17.9476 16.981C17.9476 18.5817 18.405 19.9537 19.3196 21.097C20.2343 22.2077 21.8513 23.0897 24.1706 23.743L27.5516 24.723C33.007 26.2257 35.7346 29.4107 35.7346 34.278C35.7346 36.0093 35.3263 37.5773 34.5096 38.982C33.7256 40.354 32.517 41.4483 30.8836 42.265C29.283 43.0817 27.2576 43.49 24.8076 43.49C23.109 43.49 21.4756 43.2287 19.9076 42.706C18.3723 42.1833 17.0493 41.285 15.9386 40.011C14.8606 38.737 14.142 36.973 13.7826 34.719L16.7226 33.739C16.886 35.895 17.3596 37.561 18.1436 38.737C18.9276 39.913 19.9076 40.746 21.0836 41.236C22.2596 41.6933 23.501 41.922 24.8076 41.922Z" fill="white"/>
</g>
<path d="M60.8354 42.5273C59.4185 42.5273 58.1188 42.245 56.9363 41.6804C55.7644 41.1158 54.8216 40.2901 54.1078 39.2035C53.4047 38.1168 53.0531 36.7958 53.0531 35.2404C53.0531 34.2177 53.2342 33.3175 53.5965 32.5398C53.9587 31.7621 54.518 31.0909 55.2744 30.5263C56.0308 29.9616 57.0002 29.4982 58.1828 29.136C59.3653 28.7631 60.7769 28.4755 62.4175 28.2731C63.6639 28.1239 64.7772 27.9801 65.7573 27.8416C66.7374 27.6925 67.5045 27.4634 68.0585 27.1545C68.6231 26.8455 68.9054 26.3768 68.9054 25.7482V24.7255C68.9054 22.9357 68.3408 21.5135 67.2115 20.4588C66.0823 19.4041 64.5269 18.8768 62.5453 18.8768C60.7875 18.8768 59.3067 19.2656 58.1029 20.0433C56.9097 20.8104 56.0734 21.8011 55.594 23.0156L53.7563 22.3285C54.225 21.1566 54.9015 20.1818 55.7857 19.4041C56.6806 18.6264 57.7033 18.0458 58.8539 17.6623C60.0151 17.2788 61.2296 17.087 62.4974 17.087C63.5947 17.087 64.6387 17.2415 65.6295 17.5504C66.6309 17.8594 67.5205 18.3281 68.2982 18.9567C69.0865 19.5852 69.7097 20.3896 70.1678 21.3697C70.6259 22.3391 70.855 23.5004 70.855 24.8533V42H68.9054V37.5735H68.7616C68.3355 38.4897 67.7495 39.326 67.0038 40.0824C66.2687 40.8281 65.3791 41.4247 64.3351 41.8722C63.3017 42.3089 62.1352 42.5273 60.8354 42.5273ZM61.0272 40.7216C62.5613 40.7216 63.9196 40.3487 65.1021 39.603C66.2953 38.8466 67.2275 37.8132 67.8987 36.5028C68.5698 35.1925 68.9054 33.7063 68.9054 32.0444V28.4329C68.6604 28.646 68.3035 28.8377 67.8347 29.0082C67.3766 29.168 66.8546 29.3118 66.2687 29.4396C65.6934 29.5568 65.0862 29.6634 64.447 29.7592C63.8184 29.8445 63.2058 29.9244 62.6092 29.9989C60.8195 30.212 59.36 30.5423 58.2307 30.9897C57.1121 31.4265 56.2918 32.0018 55.7698 32.7156C55.2584 33.4293 55.0027 34.2923 55.0027 35.3043C55.0027 36.9769 55.578 38.2979 56.7286 39.2674C57.8791 40.2369 59.312 40.7216 61.0272 40.7216ZM96.0956 17.4545L87.2266 42H85.0214L76.1524 17.4545H78.2458L86.0441 39.4911H86.2039L94.0022 17.4545H96.0956ZM110.434 42.5114C108.41 42.5114 106.609 41.968 105.032 40.8814C103.456 39.7841 102.215 38.2766 101.309 36.359C100.404 34.4414 99.9508 32.2575 99.9508 29.8072C99.9508 27.3462 100.404 25.1623 101.309 23.2553C102.215 21.3377 103.456 19.8303 105.032 18.733C106.609 17.6357 108.41 17.087 110.434 17.087C112.458 17.087 114.258 17.6357 115.835 18.733C117.412 19.8303 118.653 21.3377 119.558 23.2553C120.464 25.1729 120.917 27.3569 120.917 29.8072C120.917 32.2575 120.464 34.4414 119.558 36.359C118.653 38.2766 117.412 39.7841 115.835 40.8814C114.258 41.968 112.458 42.5114 110.434 42.5114ZM110.434 40.7056C112.149 40.7056 113.646 40.2209 114.924 39.2514C116.213 38.282 117.209 36.9716 117.912 35.3203C118.626 33.669 118.983 31.8313 118.983 29.8072C118.983 27.783 118.626 25.9506 117.912 24.31C117.199 22.6587 116.203 21.3484 114.924 20.3789C113.646 19.3988 112.149 18.9087 110.434 18.9087C108.719 18.9087 107.222 19.3988 105.943 20.3789C104.665 21.3484 103.669 22.6587 102.955 24.31C102.241 25.9506 101.884 27.783 101.884 29.8072C101.884 31.8313 102.236 33.669 102.939 35.3203C103.653 36.9716 104.649 38.282 105.927 39.2514C107.216 40.2209 108.719 40.7056 110.434 40.7056ZM127.632 42V17.4545H129.534V21.2898H129.71C130.242 20.0327 131.143 19.0259 132.41 18.2695C133.678 17.5025 135.122 17.119 136.741 17.119C136.911 17.119 137.082 17.119 137.252 17.119C137.423 17.119 137.583 17.1243 137.732 17.1349V19.1005C137.604 19.0898 137.449 19.0739 137.268 19.0526C137.098 19.0206 136.885 19.0046 136.629 19.0046C135.265 19.0046 134.051 19.2976 132.986 19.8835C131.931 20.4695 131.1 21.2791 130.493 22.3125C129.886 23.3352 129.582 24.5071 129.582 25.8281V42H127.632ZM145.282 51.2045C144.792 51.2045 144.308 51.1513 143.828 51.0447C143.349 50.9382 142.917 50.7997 142.534 50.6293L143.109 48.9194C144.11 49.3029 145.016 49.4414 145.826 49.3349C146.646 49.2283 147.37 48.8555 147.999 48.2163C148.628 47.5771 149.16 46.6396 149.597 45.4038L150.716 42.3356L141.719 17.4545H143.812L151.61 39.4911H151.77L159.569 17.4545H161.662L151.307 46.1708C150.913 47.2788 150.417 48.2056 149.821 48.9513C149.224 49.6971 148.542 50.2564 147.775 50.6293C147.019 51.0128 146.188 51.2045 145.282 51.2045Z" fill="#212529"/>
<defs>
<filter id="filter0_d_28_24" x="10.7826" y="6.19" width="29.952" height="42.3" filterUnits="userSpaceOnUse" color-interpolation-filters="sRGB">
<feFlood flood-opacity="0" result="BackgroundImageFix"/>
<feColorMatrix in="SourceAlpha" type="matrix" values="0 0 0 0 0 0 0 0 0 0 0 0 0 0 0 0 0 0 127 0" result="hardAlpha"/>
<feOffset dx="1" dy="1"/>
<feGaussianBlur stdDeviation="2"/>
<feComposite in2="hardAlpha" operator="out"/>
<feColorMatrix type="matrix" values="0 0 0 0 0 0 0 0 0 0 0 0 0 0 0 0 0 0 0.25 0"/>
<feBlend mode="normal" in2="BackgroundImageFix" result="effect1_dropShadow_28_24"/>
<feBlend mode="normal" in="SourceGraphic" in2="effect1_dropShadow_28_24" result="shape"/>
</filter>
</defs>
</svg>
